# xmcd
#
# Track frame offsets:
#	150
#	14212
#	25696
#	37502
#	53386
#	65095
#	78154
#	90500
#	103322
#	117549
#	130258
#	144294
#	159703
#	174065
#	189034
#
# Disc length: 2712 seconds
#
# Revision: 1
# Processed by: cddbd v1.5PL3 Copyright (c) Steve Scherf et al.
# Submitted via: audiograbber 1.81.02
#
DISCID=b30a960f
DTITLE=Javier Solis - Mis 30 Mejores Canciones Disck 1
DYEAR=2003
DGENRE=Rancheras
TTITLE0=Lloraras Lloraras
TTITLE1=Cataclismo
TTITLE2=Contaras Conmigo
TTITLE3=Mujer
TTITLE4=Gema
TTITLE5=Angustia
TTITLE6=Perdonala Senor
TTITLE7=Punto Negro
TTITLE8=Besame Y Olvidame
TTITLE9=Mi Vida Es Amor
TTITLE10=Despreciado Me Voy
TTITLE11=Borracho
TTITLE12=Tu Error
TTITLE13=Porque Negar
TTITLE14=Lagrimas De Amor
EXTD=
EXTT0=
EXTT1=
EXTT2=
EXTT3=
EXTT4=
EXTT5=
EXTT6=
EXTT7=
EXTT8=
EXTT9=
EXTT10=
EXTT11=
EXTT12=
EXTT13=
EXTT14=
PLAYORDER=
